<mxfile host="app.diagrams.net" modified="2023-06-01T09:26:15.786Z" agent="Mozilla/5.0 (Windows NT 10.0; Win64; x64) AppleWebKit/537.36 (KHTML, like Gecko) Chrome/113.0.0.0 Safari/537.36" version="21.3.6" etag="3c8AtlAqUF9JcUQoBs6d" type="github">
  <diagram name="第 1 页" id="g-AGGfHTW-tEcOvF_-hD">
    <mxGraphModel>
      <root>
        <mxCell id="0" />
        <mxCell id="1" parent="0" />
      </root>
    </mxGraphModel>
  </diagram>
</mxfile>
